<svg width="224" height="48" viewBox="0 0 224 48" fill="none" xmlns="http://www.w3.org/2000/svg">
<rect x="34.5" y="9.4375" width="21" height="21" transform="rotate(90 34.5 9.4375)" stroke="#C4B8FF" stroke-width="3"/>
<rect x="44.5" y="17.5625" width="21" height="21" transform="rotate(90 44.5 17.5625)" stroke="#6B4EFF" stroke-width="3"/>
<path d="M73.428 24.2C73.4093 27.3173 72.5413 29.7347 70.824 31.452C69.1253 33.1507 66.7733 34 63.768 34H59.96V14.4H63.768C66.7733 14.4 69.1253 15.2587 70.824 16.976C72.5413 18.6747 73.4093 21.0827 73.428 24.2ZM64.104 31.536C66.176 31.536 67.7627 30.8547 68.864 29.492C69.984 28.1107 70.5627 26.3467 70.6 24.2C70.5627 22.0533 69.984 20.2987 68.864 18.936C67.7627 17.5547 66.176 16.864 64.104 16.864H62.592V31.536H64.104ZM83.9372 20.28C87.1105 20.4107 88.6972 21.7267 88.6972 24.228C88.6972 27.3453 86.6532 28.904 82.5652 28.904H81.4172V26.748H82.7612C84.0119 26.748 84.8799 26.5613 85.3652 26.188C85.8505 25.796 86.0932 25.152 86.0932 24.256C86.0932 23.6773 85.8785 23.248 85.4492 22.968C85.0199 22.6693 84.4692 22.52 83.7972 22.52C82.4719 22.52 81.4265 22.9867 80.6612 23.92C79.9145 24.8533 79.5412 25.9733 79.5412 27.28C79.5412 28.6613 79.9425 29.7813 80.7452 30.64C81.5665 31.4987 82.6305 31.928 83.9372 31.928C85.1132 31.928 86.0745 31.6387 86.8212 31.06L88.5012 32.712C87.2132 33.7573 85.6919 34.28 83.9372 34.28C81.8092 34.28 80.1105 33.6547 78.8412 32.404C77.5719 31.1533 76.9372 29.5387 76.9372 27.56C76.9372 25.3573 77.5625 23.5747 78.8132 22.212C80.0639 20.8493 81.7719 20.2053 83.9372 20.28ZM101.378 20.56V22.912H96.4219C95.8806 22.912 95.4139 23.0147 95.0219 23.22C94.6299 23.4253 94.4339 23.7147 94.4339 24.088C94.4339 24.312 94.4806 24.5173 94.5739 24.704C94.6672 24.872 94.7699 25.012 94.8819 25.124C95.0126 25.236 95.1992 25.3573 95.4419 25.488C95.7032 25.6 95.8992 25.684 96.0299 25.74C96.1792 25.7773 96.7766 25.964 97.8219 26.3C98.8672 26.636 99.6419 26.916 100.146 27.14C100.65 27.364 101.033 27.672 101.294 28.064C101.574 28.4373 101.751 28.8107 101.826 29.184C101.901 29.5387 101.938 29.8933 101.938 30.248C101.938 32.7493 100.221 34 96.7859 34H91.9419V31.648H96.7859C98.5406 31.648 99.4179 31.1813 99.4179 30.248C99.4179 29.8 99.1566 29.4267 98.6339 29.128C98.1299 28.8293 97.5046 28.5773 96.7579 28.372C96.0299 28.1667 95.2926 27.9333 94.5459 27.672C93.8179 27.392 93.1926 26.9533 92.6699 26.356C92.1659 25.74 91.9139 24.984 91.9139 24.088C91.9139 22.9493 92.3526 22.0813 93.2299 21.484C94.1072 20.868 95.1712 20.56 96.4219 20.56H101.378ZM108.941 34H106.477V22.912H104.181L105.301 20.56H108.941V34ZM106.365 17.76C106.123 17.4427 106.001 17.0973 106.001 16.724C106.001 16.3507 106.123 16.0147 106.365 15.716C106.608 15.3987 106.981 15.24 107.485 15.24C107.989 15.24 108.363 15.3987 108.605 15.716C108.848 16.0147 108.969 16.3507 108.969 16.724C108.969 17.0973 108.848 17.4427 108.605 17.76C108.363 18.0587 107.989 18.208 107.485 18.208C106.981 18.208 106.608 18.0587 106.365 17.76ZM119.488 34C117.659 34 116.091 33.384 114.784 32.152C113.478 30.92 112.824 29.3427 112.824 27.42C112.824 25.4787 113.478 23.8547 114.784 22.548C116.11 21.2227 117.743 20.56 119.684 20.56H126.264V33.608C126.264 34.448 126.152 35.204 125.928 35.876C125.723 36.548 125.424 37.1173 125.032 37.584C124.64 38.0507 124.286 38.4147 123.968 38.676C123.651 38.9373 123.268 39.208 122.82 39.488C121.663 40.0853 120.254 40.384 118.592 40.384H115.456V38.032H118.34C119.983 38.032 121.15 37.8267 121.84 37.416C123.11 36.7067 123.744 35.5307 123.744 33.888V22.912H119.684C118.359 22.912 117.304 23.3227 116.52 24.144C115.736 24.9653 115.344 26.0573 115.344 27.42C115.344 28.7267 115.746 29.7627 116.548 30.528C117.37 31.2747 118.35 31.648 119.488 31.648C120.72 31.648 121.803 31.312 122.736 30.64V33.16C121.728 33.72 120.646 34 119.488 34ZM130.46 20.56H135.304C137.376 20.56 138.86 20.868 139.756 21.484C140.559 22.0253 141.063 22.6787 141.268 23.444C141.492 24.1907 141.604 25.18 141.604 26.412V34H139.14V26.44C139.14 26.104 139.131 25.824 139.112 25.6C139.093 25.3573 139.028 25.0587 138.916 24.704C138.804 24.3307 138.645 24.032 138.44 23.808C138.235 23.5653 137.936 23.36 137.544 23.192C137.152 23.0053 136.676 22.912 136.116 22.912H132.924V34H130.46V20.56Z" fill="#404040"/>
<path d="M155.543 34H152.911V14.4H159.827C162.142 14.4 163.869 14.9227 165.007 15.968C166.146 16.9947 166.715 18.6187 166.715 20.84V34H164.083V20.476C164.083 19.2067 163.691 18.292 162.907 17.732C162.142 17.1533 161.125 16.864 159.855 16.864H155.543V34ZM172.313 22.324C173.62 20.9613 175.253 20.28 177.213 20.28C178.165 20.28 179.052 20.4667 179.873 20.84C180.713 21.1947 181.441 21.6893 182.057 22.324C182.692 22.9587 183.187 23.7053 183.541 24.564C183.896 25.404 184.073 26.3093 184.073 27.28C184.073 28.2507 183.896 29.1653 183.541 30.024C183.205 30.864 182.729 31.6013 182.113 32.236C181.497 32.8707 180.769 33.3747 179.929 33.748C179.089 34.1027 178.184 34.28 177.213 34.28C176.224 34.28 175.309 34.1027 174.469 33.748C173.648 33.3747 172.929 32.8707 172.313 32.236C171.697 31.6013 171.212 30.864 170.857 30.024C170.521 29.1653 170.353 28.2507 170.353 27.28C170.353 25.3013 171.007 23.6493 172.313 22.324ZM177.213 22.632C175.907 22.632 174.852 23.0613 174.049 23.92C173.265 24.7787 172.873 25.8987 172.873 27.28C172.873 28.6613 173.265 29.7813 174.049 30.64C174.852 31.4987 175.907 31.928 177.213 31.928C178.539 31.928 179.593 31.4987 180.377 30.64C181.161 29.7627 181.553 28.6427 181.553 27.28C181.553 25.9173 181.161 24.8067 180.377 23.948C179.593 23.0707 178.539 22.632 177.213 22.632ZM186.175 22.912L191.187 17.9V20.56H194.967V22.912H191.187V28.68C191.187 29.3333 191.29 29.8747 191.495 30.304C191.719 30.7333 192.037 31.0413 192.447 31.228C192.858 31.396 193.241 31.508 193.595 31.564C193.969 31.62 194.426 31.648 194.967 31.648V34C192.821 34 191.234 33.5893 190.207 32.768C189.181 31.9467 188.667 30.584 188.667 28.68V22.912H186.175ZM204.778 20.28C207.951 20.4107 209.538 21.7267 209.538 24.228C209.538 27.3453 207.494 28.904 203.406 28.904H202.258V26.748H203.602C204.853 26.748 205.721 26.5613 206.206 26.188C206.691 25.796 206.934 25.152 206.934 24.256C206.934 23.6773 206.719 23.248 206.29 22.968C205.861 22.6693 205.31 22.52 204.638 22.52C203.313 22.52 202.267 22.9867 201.502 23.92C200.755 24.8533 200.382 25.9733 200.382 27.28C200.382 28.6613 200.783 29.7813 201.586 30.64C202.407 31.4987 203.471 31.928 204.778 31.928C205.954 31.928 206.915 31.6387 207.662 31.06L209.342 32.712C208.054 33.7573 206.533 34.28 204.778 34.28C202.65 34.28 200.951 33.6547 199.682 32.404C198.413 31.1533 197.778 29.5387 197.778 27.56C197.778 25.3573 198.403 23.5747 199.654 22.212C200.905 20.8493 202.613 20.2053 204.778 20.28ZM222.219 20.56V22.912H217.263C216.721 22.912 216.255 23.0147 215.863 23.22C215.471 23.4253 215.275 23.7147 215.275 24.088C215.275 24.312 215.321 24.5173 215.415 24.704C215.508 24.872 215.611 25.012 215.723 25.124C215.853 25.236 216.04 25.3573 216.283 25.488C216.544 25.6 216.74 25.684 216.871 25.74C217.02 25.7773 217.617 25.964 218.663 26.3C219.708 26.636 220.483 26.916 220.987 27.14C221.491 27.364 221.873 27.672 222.135 28.064C222.415 28.4373 222.592 28.8107 222.667 29.184C222.741 29.5387 222.779 29.8933 222.779 30.248C222.779 32.7493 221.061 34 217.627 34H212.783V31.648H217.627C219.381 31.648 220.259 31.1813 220.259 30.248C220.259 29.8 219.997 29.4267 219.475 29.128C218.971 28.8293 218.345 28.5773 217.599 28.372C216.871 28.1667 216.133 27.9333 215.387 27.672C214.659 27.392 214.033 26.9533 213.511 26.356C213.007 25.74 212.755 24.984 212.755 24.088C212.755 22.9493 213.193 22.0813 214.071 21.484C214.948 20.868 216.012 20.56 217.263 20.56H222.219Z" fill="#6B4EFF"/>
</svg>
